name C:/MyDriveSym/Projects/mobilecap/Data\Session20210816_0002\mocap\ForceDataProcessed\walkingTS4_forces.mot
datacolumns 19
datarows 24
range 0.38950000 0.40100000
endheader 
time	R_ground_force_vx	R_ground_force_vy	R_ground_force_vz	R_ground_force_px	R_ground_force_py	R_ground_force_pz	R_ground_torque_x	R_ground_torque_y	R_ground_torque_z	L_ground_force_vx	L_ground_force_vy	L_ground_force_vz	L_ground_force_px	L_ground_force_py	L_ground_force_pz	L_ground_torque_x	L_ground_torque_y	L_ground_torque_z	
          0.38950000	        -18.02350200	        571.85884100	        -12.33361500	          0.29497700	          0.00600000	         -0.21755600	          0.00000000	         -4.41943000	          0.00000000	          0.00000000	          0.00000000	          0.00000000	          0.75506100	          0.00000000	         -0.31595700	          0.00000000	          0.00000000	          0.00000000	
          0.39000000	        -17.87334800	        571.85583100	        -12.36226800	          0.29506000	          0.00600000	         -0.21755500	          0.00000000	         -4.42287600	          0.00000000	          0.00000000	          0.00000000	          0.00000000	          0.75506100	          0.00000000	         -0.31595700	          0.00000000	          0.00000000	          0.00000000	
          0.39050000	        -17.72220800	        571.85614100	        -12.39114500	          0.29514300	          0.00600000	         -0.21755300	          0.00000000	         -4.42633900	          0.00000000	          0.00000000	          0.00000000	          0.00000000	          0.75506100	          0.00000000	         -0.31595700	          0.00000000	          0.00000000	          0.00000000	
          0.39100000	        -17.57008400	        571.85978100	        -12.42024500	          0.29522500	          0.00600000	         -0.21755200	          0.00000000	         -4.42981800	          0.00000000	          0.00000000	          0.00000000	          0.00000000	          0.75506100	          0.00000000	         -0.31595700	          0.00000000	          0.00000000	          0.00000000	
          0.39150000	        -17.41697900	        571.86675800	        -12.44956700	          0.29530600	          0.00600000	         -0.21755000	          0.00000000	         -4.43331400	          0.00000000	          0.00000000	          0.00000000	          0.00000000	          0.75506100	          0.00000000	         -0.31595700	          0.00000000	          0.00000000	          0.00000000	
          0.39200000	        -17.26289600	        571.87708200	        -12.47911200	          0.29538600	          0.00600000	         -0.21754800	          0.00000000	         -4.43682600	          0.00000000	          0.00000000	          0.00000000	          0.00000000	          0.75506100	          0.00000000	         -0.31595700	          0.00000000	          0.00000000	          0.00000000	
          0.39250000	        -17.10783600	        571.89076100	        -12.50887900	          0.29546500	          0.00600000	         -0.21754600	          0.00000000	         -4.44035400	          0.00000000	          0.00000000	          0.00000000	          0.00000000	          0.75506100	          0.00000000	         -0.31595700	          0.00000000	          0.00000000	          0.00000000	
          0.39300000	        -16.95180400	        571.90780200	        -12.53886700	          0.29554400	          0.00600000	         -0.21754400	          0.00000000	         -4.44389800	          0.00000000	          0.00000000	          0.00000000	          0.00000000	          0.75506100	          0.00000000	         -0.31595700	          0.00000000	          0.00000000	          0.00000000	
          0.39350000	        -16.79480100	        571.92821300	        -12.56907700	          0.29562200	          0.00600000	         -0.21754200	          0.00000000	         -4.44745800	          0.00000000	          0.00000000	          0.00000000	          0.00000000	          0.75506100	          0.00000000	         -0.31595700	          0.00000000	          0.00000000	          0.00000000	
          0.39400000	        -16.63683000	        571.95200300	        -12.59950800	          0.29569900	          0.00600000	         -0.21753900	          0.00000000	         -4.45103300	          0.00000000	          0.00000000	          0.00000000	          0.00000000	          0.75506100	          0.00000000	         -0.31595700	          0.00000000	          0.00000000	          0.00000000	
          0.39450000	        -16.47789400	        571.97917800	        -12.63015900	          0.29577600	          0.00600000	         -0.21753700	          0.00000000	         -4.45462400	          0.00000000	          0.00000000	          0.00000000	          0.00000000	          0.75506100	          0.00000000	         -0.31595700	          0.00000000	          0.00000000	          0.00000000	
          0.39500000	        -16.31799500	        572.00974600	        -12.66103100	          0.29585200	          0.00600000	         -0.21753400	          0.00000000	         -4.45822900	          0.00000000	          0.00000000	          0.00000000	          0.00000000	          0.75506100	          0.00000000	         -0.31595700	          0.00000000	          0.00000000	          0.00000000	
          0.39550000	        -16.15713700	        572.04371500	        -12.69212200	          0.29592700	          0.00600000	         -0.21753200	          0.00000000	         -4.46184900	          0.00000000	          0.00000000	          0.00000000	          0.00000000	          0.75506100	          0.00000000	         -0.31595700	          0.00000000	          0.00000000	          0.00000000	
          0.39600000	        -15.99532200	        572.08109100	        -12.72343200	          0.29600100	          0.00600000	         -0.21752900	          0.00000000	         -4.46548300	          0.00000000	          0.00000000	          0.00000000	          0.00000000	          0.75506100	          0.00000000	         -0.31595700	          0.00000000	          0.00000000	          0.00000000	
          0.39650000	        -15.83255200	        572.12188200	        -12.75496000	          0.29607400	          0.00600000	         -0.21752600	          0.00000000	         -4.46913200	          0.00000000	          0.00000000	          0.00000000	          0.00000000	          0.75506100	          0.00000000	         -0.31595700	          0.00000000	          0.00000000	          0.00000000	
          0.39700000	        -15.66883000	        572.16609300	        -12.78670600	          0.29614700	          0.00600000	         -0.21752300	          0.00000000	         -4.47279400	          0.00000000	          0.00000000	          0.00000000	          0.00000000	          0.75506100	          0.00000000	         -0.31595700	          0.00000000	          0.00000000	          0.00000000	
          0.39750000	        -15.50415900	        572.21373200	        -12.81866900	          0.29621900	          0.00600000	         -0.21752000	          0.00000000	         -4.47647000	          0.00000000	          0.00000000	          0.00000000	          0.00000000	          0.75506100	          0.00000000	         -0.31595700	          0.00000000	          0.00000000	          0.00000000	
          0.39800000	        -15.33854200	        572.26480500	        -12.85084900	          0.29629100	          0.00600000	         -0.21751700	          0.00000000	         -4.48015900	          0.00000000	          0.00000000	          0.00000000	          0.00000000	          0.75506100	          0.00000000	         -0.31595700	          0.00000000	          0.00000000	          0.00000000	
          0.39850000	        -15.17198100	        572.31931800	        -12.88324500	          0.29636100	          0.00600000	         -0.21751400	          0.00000000	         -4.48386100	          0.00000000	          0.00000000	          0.00000000	          0.00000000	          0.75506100	          0.00000000	         -0.31595700	          0.00000000	          0.00000000	          0.00000000	
          0.39900000	        -15.00447900	        572.37727700	        -12.91585600	          0.29643100	          0.00600000	         -0.21751100	          0.00000000	         -4.48757600	          0.00000000	          0.00000000	          0.00000000	          0.00000000	          0.75506100	          0.00000000	         -0.31595700	          0.00000000	          0.00000000	          0.00000000	
          0.39950000	        -14.83603800	        572.43868800	        -12.94868100	          0.29650100	          0.00600000	         -0.21750700	          0.00000000	         -4.49130400	          0.00000000	          0.00000000	          0.00000000	          0.00000000	          0.75506100	          0.00000000	         -0.31595700	          0.00000000	          0.00000000	          0.00000000	
          0.40000000	        -14.66666200	        572.50355600	        -12.98172000	          0.29656900	          0.00600000	         -0.21750400	          0.00000000	         -4.49504400	          0.00000000	          0.00000000	          0.00000000	          0.00000000	          0.75506100	          0.00000000	         -0.31595700	          0.00000000	          0.00000000	          0.00000000	
          0.40050000	        -14.49635200	        572.57188700	        -13.01497100	          0.29663700	          0.00600000	         -0.21750000	          0.00000000	         -4.49879500	          0.00000000	          0.00000000	          0.00000000	          0.00000000	          0.75506100	          0.00000000	         -0.31595700	          0.00000000	          0.00000000	          0.00000000	
          0.40100000	        -14.32511100	        572.64368600	        -13.04843500	          0.29670400	          0.00600000	         -0.21749600	          0.00000000	         -4.50255900	          0.00000000	          0.00000000	          0.00000000	          0.00000000	          0.75506100	          0.00000000	         -0.31595700	          0.00000000	          0.00000000	          0.00000000	
